<svg width="58" height="51" viewBox="0 0 58 51" fill="none" xmlns="http://www.w3.org/2000/svg">
<g id="logo">
<g id="BE">
<path d="M12 20.5927V4.2H20.1261C21.2502 4.2 22.2337 4.39515 23.0768 4.78545C23.9355 5.17576 24.6068 5.72218 25.0908 6.42473C25.5747 7.11166 25.8167 7.90788 25.8167 8.81338C25.8167 9.4847 25.645 10.117 25.3015 10.7103C24.9737 11.2879 24.5209 11.7797 23.9433 12.1856C24.677 12.5759 25.2547 13.0833 25.6762 13.7078C26.1134 14.3323 26.3319 15.0192 26.3319 15.7686C26.3319 16.7209 26.0899 17.564 25.606 18.2977C25.122 19.0159 24.4429 19.5779 23.5686 19.9839C22.6943 20.3898 21.6795 20.5927 20.5242 20.5927H12ZM16.0279 10.7337H19.8685C20.4618 10.7337 20.9301 10.5854 21.2736 10.2887C21.6171 9.99209 21.7888 9.60179 21.7888 9.11782C21.7888 8.61823 21.6171 8.22793 21.2736 7.94691C20.9301 7.65028 20.4618 7.50196 19.8685 7.50196H16.0279V10.7337ZM16.0279 17.2908H20.2198C20.8443 17.2908 21.3361 17.1346 21.6951 16.8224C22.0698 16.5102 22.2572 16.0886 22.2572 15.5578C22.2572 15.027 22.0698 14.6055 21.6951 14.2932C21.3361 13.981 20.8443 13.8249 20.2198 13.8249H16.0279V17.2908Z" fill="#C4F4FE"/>
<path d="M28.5116 20.5927V4.2H41.4385V7.68931H32.5396V10.64H38.4175V14.0122H32.5396V17.1034H41.5322V20.5927H28.5116Z" fill="#C4F4FE"/>
</g>
<path id="o" d="M26.5 50.2C23.9748 50.2 21.6924 49.6011 19.6529 48.4033C17.6133 47.2055 15.9946 45.5919 14.7968 43.5623C13.5989 41.5327 13 39.2536 13 36.725C13 34.1963 13.5827 31.9172 14.7482 29.8876C15.946 27.8248 17.5647 26.1945 19.6043 24.9967C21.6763 23.7989 23.9748 23.2 26.5 23.2C29.0252 23.2 31.3076 23.7989 33.3471 24.9967C35.4191 26.1945 37.0378 27.8248 38.2032 29.8876C39.4011 31.9172 40 34.1963 40 36.725C40 39.2536 39.4011 41.5327 38.2032 43.5623C37.0378 45.5919 35.4353 47.2055 33.3957 48.4033C31.3561 49.6011 29.0576 50.2 26.5 50.2ZM26.5 44.261C27.8273 44.261 29.009 43.9283 30.045 43.2628C31.1133 42.5974 31.955 41.6991 32.5701 40.5678C33.2176 39.4033 33.5414 38.1224 33.5414 36.725C33.5414 35.2943 33.2176 34.0133 32.5701 32.8821C31.955 31.7508 31.1133 30.8525 30.045 30.1871C29.009 29.4884 27.8273 29.139 26.5 29.139C25.205 29.139 24.0234 29.4884 22.955 30.1871C21.8867 30.8525 21.045 31.7508 20.4299 32.8821C19.8147 34.0133 19.5072 35.2943 19.5072 36.725C19.5072 38.1224 19.8147 39.4033 20.4299 40.5678C21.045 41.6991 21.8867 42.5974 22.955 43.2628C24.0234 43.9283 25.205 44.261 26.5 44.261Z" fill="#C4F4FE"/>
<rect id="Rectangle 1" x="44" y="4.2" width="9" height="46" fill="#C4F4FE"/>
<rect id="Rectangle 2" y="4.2" width="9" height="46" fill="#C4F4FE"/>
</g>
</svg>
