<svg width="62" height="63" viewBox="0 0 62 63" fill="none" xmlns="http://www.w3.org/2000/svg">
<rect y="0.5" width="62" height="62" rx="31" fill="black" fill-opacity="0.78"/>
<path d="M16.9652 47.0943C16.1076 47.0943 15.3731 46.7887 14.7618 46.1774C14.1505 45.5661 13.8454 44.8322 13.8464 43.9755V25.2627C13.8464 24.405 14.1521 23.6705 14.7634 23.0592C15.3747 22.4479 16.1086 22.1428 16.9652 22.1439H21.8774L24.7623 19.0251H34.1187V22.1439H26.1267L23.2808 25.2627H16.9652V43.9755H41.9157V29.9409H45.0345V43.9755C45.0345 44.8332 44.7289 45.5677 44.1176 46.179C43.5063 46.7902 42.7723 47.0954 41.9157 47.0943H16.9652ZM41.9157 25.2627V22.1439H38.7969V19.0251H41.9157V15.9062H45.0345V19.0251H48.1533V22.1439H45.0345V25.2627H41.9157ZM29.4405 41.6364C31.3897 41.6364 33.0469 40.9539 34.4119 39.5889C35.7769 38.2239 36.4588 36.5673 36.4578 34.6191C36.4578 32.6698 35.7753 31.0127 34.4103 29.6477C33.0453 28.2827 31.3887 27.6007 29.4405 27.6018C27.4912 27.6018 25.8341 28.2843 24.4691 29.6493C23.1041 31.0143 22.4221 32.6709 22.4232 34.6191C22.4232 36.5684 23.1057 38.2255 24.4707 39.5905C25.8357 40.9555 27.4923 41.6375 29.4405 41.6364ZM29.4405 38.5176C28.3489 38.5176 27.4262 38.1408 26.6725 37.387C25.9188 36.6333 25.542 35.7107 25.542 34.6191C25.542 33.5275 25.9188 32.6049 26.6725 31.8512C27.4262 31.0974 28.3489 30.7206 29.4405 30.7206C30.5321 30.7206 31.4547 31.0974 32.2084 31.8512C32.9621 32.6049 33.339 33.5275 33.339 34.6191C33.339 35.7107 32.9621 36.6333 32.2084 37.387C31.4547 38.1408 30.5321 38.5176 29.4405 38.5176Z" fill="#A5A5A5"/>
</svg>
