<svg width="29" height="268" viewBox="0 0 29 268" fill="none" xmlns="http://www.w3.org/2000/svg">
<path d="M19.9511 0.744019C19.9511 0.394165 19.6675 0.110565 19.3177 0.110565C18.9678 0.110565 18.6842 0.394165 18.6842 0.744018L19.9511 0.744019ZM27.694 133.988L28.1942 134.377L28.4967 133.988L28.1938 133.599L27.694 133.988ZM19.3176 123.236L18.6842 123.236L18.6842 123.453L18.8179 123.625L19.3176 123.236ZM19.3176 144.764L18.8175 144.376L18.6842 144.547L18.6842 144.764L19.3176 144.764ZM28.1938 133.599L19.8174 122.846L18.8179 123.625L27.1943 134.377L28.1938 133.599ZM19.9511 123.236L19.9511 0.744019L18.6842 0.744018L18.6842 123.236L19.9511 123.236ZM19.9511 267.256L19.9511 144.764L18.6842 144.764L18.6842 267.256L19.9511 267.256ZM19.8178 145.153L28.1942 134.377L27.1939 133.599L18.8175 144.376L19.8178 145.153Z" fill="url(#paint0_linear_1019_4024)"/>
<path d="M8.54877 267.256C8.54877 267.606 8.83238 267.89 9.18223 267.89C9.53208 267.89 9.81568 267.606 9.81568 267.256L8.54877 267.256ZM0.805842 134.012L0.305704 133.623L0.0031927 134.013L0.306123 134.401L0.805842 134.012ZM9.18224 144.765L9.8157 144.765L9.8157 144.547L9.68196 144.375L9.18224 144.765ZM9.18224 123.236L9.68238 123.625L9.8157 123.453L9.8157 123.236L9.18224 123.236ZM0.306123 134.401L8.68252 145.154L9.68196 144.375L1.30556 133.623L0.306123 134.401ZM8.54878 144.765L8.54877 267.256L9.81568 267.256L9.8157 144.765L8.54878 144.765ZM8.54879 0.744141L8.54878 123.236L9.8157 123.236L9.81571 0.744141L8.54879 0.744141ZM8.6821 122.847L0.305704 133.623L1.30598 134.401L9.68238 123.625L8.6821 122.847Z" fill="url(#paint1_linear_1019_4024)"/>
<defs>
<linearGradient id="paint0_linear_1019_4024" x1="19.3177" y1="1.45662" x2="19.3176" y2="270.106" gradientUnits="userSpaceOnUse">
<stop stop-color="#E3C488" stop-opacity="0"/>
<stop offset="0.491934" stop-color="#E3C488"/>
<stop offset="0.979167" stop-color="#E3C488" stop-opacity="0"/>
</linearGradient>
<linearGradient id="paint1_linear_1019_4024" x1="9.18223" y1="266.544" x2="9.18225" y2="-2.10625" gradientUnits="userSpaceOnUse">
<stop stop-color="#E3C488" stop-opacity="0"/>
<stop offset="0.491934" stop-color="#E3C488"/>
<stop offset="0.979167" stop-color="#E3C488" stop-opacity="0"/>
</linearGradient>
</defs>
</svg>
