<svg width="122" height="122" viewBox="0 0 122 122" fill="none" xmlns="http://www.w3.org/2000/svg">
<rect x="0.0871582" y="0.188232" width="121.624" height="121.624" rx="60.8118" fill="#1E2027"/>
<path d="M60.6168 28.5L51.3022 44.75C60.2028 40.1667 66.8264 43.2024 69.9313 44.75L60.6168 28.5Z" fill="#A5A5A5"/>
<path d="M25.899 32.4224L51.3022 44.82C43.3244 49.653 42.2747 57.8247 42.2747 60.9999C32.9608 57.1896 27.4513 40.3606 25.899 32.4224Z" fill="#A5A5A5"/>
<path d="M95.899 32.4224L70.4958 44.82C78.4083 49.653 79.4494 57.8247 79.4494 60.9999C88.687 57.1896 94.3595 40.3606 95.899 32.4224Z" fill="#A5A5A5"/>
<ellipse cx="60.3345" cy="61.0001" rx="14.1129" ry="14.0086" fill="#A5A5A5"/>
<path d="M55.8184 83.7875L60.3345 78.9312L64.8506 83.7875L60.3345 93.5001L55.8184 83.7875Z" fill="#A5A5A5"/>
<path d="M43.1517 66.0432C46.6681 75.9172 54.9431 78.8041 58.641 79.0133L56.1292 81.7329C48.0915 80.5614 42.1749 71.6915 40.0119 67.5076L43.1517 66.0432Z" fill="#A5A5A5"/>
<path d="M78.1168 66.6035C74.6394 76.2536 66.2494 78.8705 62.5926 79.075L65.0765 81.7328C73.0248 80.5879 79.0827 72.1237 81.2216 68.0347L78.1168 66.6035Z" fill="#A5A5A5"/>
</svg>
